<svg version="1" xmlns="http://www.w3.org/2000/svg" width="204" height="204" viewBox="0 0 153.000000 153.000000"><path d="M60.1 25.9c-1.2 1.6-2.1 3.2-2.1 3.5 0 .3-3.2 6-7.2 12.8C42.2 57.1 26.6 84 23.5 89.5c-1.3 2.2-6.6 11.4-11.8 20.5-5.3 9-9.4 16.7-9.1 16.9.3.3 33.8.6 74.4.7l73.9.1-1.5-2.9c-.8-1.5-2.8-5.2-4.6-8-1.7-2.9-11.6-20.2-22.1-38.3-10.4-18.2-19.1-33.1-19.2-33.3-.2-.2-3.3 5-7 11.5s-6.9 11.9-7 12.1c-.1.1-6.2-10.1-13.5-22.8-7.3-12.6-13.4-23-13.6-23-.1 0-1.2 1.3-2.3 2.9zm15.4 29.4c9.6 16.7 10.6 19.1 9.6 21-.7 1.2-6.9 12.1-13.9 24.2l-12.7 22-23.2-.1c-12.8 0-23.5-.3-23.8-.6-.3-.3 2.3-5.4 5.8-11.4S30.8 87.1 39.5 72c24-41.8 22.5-39.4 24-37.3.7 1 6.1 10.3 12 20.6zm33.1 8.9c13.5 23.4 33.4 58 33.4 58.1 0 .6-20.7 0-21.6-.6-.6-.3-3.5-4.8-6.4-9.9-2.9-5.1-6.1-10.7-7-12.3-1-1.7-4.7-8-8.3-14.2l-6.5-11.1 4.9-8.3c2.7-4.5 4.9-8.6 4.9-9.1 0-2.5 2.4.1 6.6 7.4zm-10 31c4.8 8.4 9.5 16.8 10.6 18.6 1 1.8 2.6 4.4 3.4 5.8l1.6 2.4H64.8l3.8-6.8c2-3.7 5.5-9.6 7.6-13.1 2.1-3.4 3.8-6.5 3.8-6.7 0-.5 9.1-15.4 9.5-15.4.1 0 4.2 6.9 9.1 15.2z"/></svg>